<?xml version="1.0" encoding="utf-8"?>
<!-- Generator: Adobe Illustrator 26.3.0, SVG Export Plug-In . SVG Version: 6.00 Build 0)  -->
<svg version="1.1" id="Capa_1" xmlns="http://www.w3.org/2000/svg" xmlns:xlink="http://www.w3.org/1999/xlink" x="0px" y="0px"
	 viewBox="0 0 45 44" style="enable-background:new 0 0 45 44;" xml:space="preserve">
<style type="text/css">
	.st0{fill:#0D0D0D;}
	.st1{display:none;}
	.st2{display:inline;fill:#FFFFFF;}
	.st3{fill:#F2CA52;}
	.st4{fill:none;}
	.st5{fill:#FFFFFF;}
</style>
<polygon class="st0" points="4.8,25.7 4.8,33.5 23.4,34.1 25.3,26.8 21,25.7 "/>
<g class="st1">
	<rect y="0" class="st2" width="48" height="48"/>
	<rect x="-47" y="0" class="st2" width="48" height="48"/>
</g>
<path class="st5" d="M24,0c-0.6,0-1,0.4-1,1v1c0,0.6,0.4,1,1,1h10v6.5c0,0.8,0.7,1.5,1.5,1.5H42v28.5c0,0.9-0.6,1.5-1.5,1.5h-23
	c-0.9,0-1.5-0.6-1.5-1.5V38c0-0.6-0.4-1-1-1h-1c-0.6,0-1,0.4-1,1v1.5c0,2.5,2,4.5,4.5,4.5h23c2.5,0,4.5-2,4.5-4.5V9
	c0-0.4-0.2-0.8-0.4-1.1L37,0.4C36.8,0.2,36.4,0,36,0H24z M13,21c0,0.6,0.4,1,1,1h1c0.6,0,1-0.4,1-1V11c0-0.6-0.4-1-1-1h-1
	c-0.6,0-1,0.4-1,1V21z"/>
<path class="st3" d="M17.5,0C15,0,13,2,13,4.5V7c0,0.6,0.4,1,1,1h1c0.6,0,1-0.4,1-1V4.5C16,3.6,16.6,3,17.5,3H20c0.6,0,1-0.4,1-1V1
	c0-0.6-0.4-1-1-1H17.5z M2,24c-1.1,0-2,0.9-2,2v7c0,1.1,0.9,2,2,2h25c1.1,0,2-0.9,2-2v-7c0-1.1-0.9-2-2-2H2z M9,26.6
	c0.4,0,0.9,0.1,1.3,0.3c0.1-0.2,0.2-0.3,0.4-0.3c0.3,0,0.4,0.1,0.4,0.5v1.2c0,0.4-0.1,0.5-0.5,0.5c-0.3,0-0.4-0.1-0.5-0.4
	c-0.2-0.5-0.4-0.8-1.1-0.8c-0.9,0-1.5,0.6-1.5,1.9s0.6,1.9,1.5,1.9c0.2,0,0.5-0.1,0.9-0.2v-0.7H9.5c-0.4,0-0.6-0.1-0.6-0.5
	s0.2-0.5,0.6-0.5h1.7c0.4,0,0.6,0.1,0.6,0.5c0,0.3-0.2,0.5-0.5,0.5h-0.1v1.1v0.1c0,0.2,0,0.2-0.2,0.3c-0.3,0.2-1.1,0.4-2,0.4
	c-1.6,0-2.7-1.2-2.7-2.9C6.2,27.9,7.4,26.6,9,26.6L9,26.6z M18.4,26.7L18.4,26.7h3.8c0.4,0,0.5,0.1,0.5,0.4v1c0,0.4-0.1,0.6-0.5,0.6
	s-0.5-0.2-0.5-0.6v-0.5h-2.2v1.2h0.8v-0.1c0-0.4,0.2-0.5,0.5-0.5c0.4,0,0.5,0.2,0.5,0.6v1c0,0.4-0.1,0.6-0.5,0.6
	c-0.3,0-0.5-0.2-0.5-0.5v-0.1h-0.8v1.4h0.3c0.4,0,0.6,0.1,0.6,0.5c0,0.4-0.2,0.5-0.6,0.5h-1.4c-0.4,0-0.6-0.1-0.6-0.5
	c0-0.3,0.2-0.5,0.5-0.5h0.1v-3.5h-0.1c-0.3,0-0.5-0.2-0.5-0.5C17.9,26.9,18.1,26.7,18.4,26.7L18.4,26.7z M13.2,26.8H16
	c0.4,0,0.6,0.1,0.6,0.5s-0.2,0.5-0.6,0.5h-0.8v3.5H16c0.4,0,0.6,0.1,0.6,0.5c0,0.4-0.2,0.5-0.6,0.5h-2.8c-0.4,0-0.6-0.1-0.6-0.5
	s0.2-0.5,0.6-0.5H14v-3.5h-0.8c-0.4,0-0.6-0.1-0.6-0.5C12.6,26.9,12.8,26.8,13.2,26.8z"/>
</svg>
